<?xml version="1.0" encoding="UTF-8"?>
<mxfile host="app.diagrams.net" modified="2021-05-14T16:46:56.660Z" agent="5.0 (Windows NT 10.0; Win64; x64) AppleWebKit/537.36 (KHTML, like Gecko) Chrome/90.0.4430.212 Safari/537.36" etag="EaUe0HFYh-upyYGoxGYQ" version="14.6.13" type="google">
  <diagram id="YWIrthZDNr-yEC6l_Tu2" name="Page-1">
    <mxGraphModel dx="780" dy="412" grid="1" gridSize="10" guides="1" tooltips="1" connect="1" arrows="1" fold="1" page="1" pageScale="1" pageWidth="827" pageHeight="1169" math="0" shadow="0">
      <root>
        <mxCell id="0" />
        <mxCell id="1" parent="0" />
        <mxCell id="oK4e31LTFk5F_U8Ap8hT-4" value="" style="rounded=0;whiteSpace=wrap;html=1;" parent="1" vertex="1">
          <mxGeometry x="83" y="430" width="1062" height="390" as="geometry" />
        </mxCell>
        <mxCell id="XbSnRbyiRiulwxPB_xvA-2" value="" style="shape=callout;whiteSpace=wrap;html=1;perimeter=calloutPerimeter;labelBackgroundColor=none;rotation=-180;position2=0.75;size=200;position=0.48;" parent="1" vertex="1">
          <mxGeometry x="208" y="649" width="560" height="520" as="geometry" />
        </mxCell>
        <mxCell id="ymZq4ziiiDrzz2XUPteQ-3" value="Manager" style="shape=umlActor;verticalLabelPosition=bottom;verticalAlign=top;html=1;outlineConnect=0;" parent="1" vertex="1">
          <mxGeometry x="120" y="120" width="28" height="60" as="geometry" />
        </mxCell>
        <mxCell id="ymZq4ziiiDrzz2XUPteQ-6" value="" style="endArrow=classic;html=1;entryX=1;entryY=1;entryDx=0;entryDy=0;entryPerimeter=0;" parent="1" target="0AsoECzYEEMhJQaMiZ-F-5" edge="1">
          <mxGeometry width="50" height="50" relative="1" as="geometry">
            <mxPoint x="135" y="210" as="sourcePoint" />
            <mxPoint x="265" y="211" as="targetPoint" />
          </mxGeometry>
        </mxCell>
        <mxCell id="ymZq4ziiiDrzz2XUPteQ-7" value="" style="endArrow=none;html=1;" parent="1" edge="1">
          <mxGeometry width="50" height="50" relative="1" as="geometry">
            <mxPoint x="135" y="840" as="sourcePoint" />
            <mxPoint x="135" y="200" as="targetPoint" />
          </mxGeometry>
        </mxCell>
        <mxCell id="ymZq4ziiiDrzz2XUPteQ-10" value="click &quot;Book Return&quot; tab" style="text;html=1;strokeColor=none;fillColor=none;align=center;verticalAlign=middle;whiteSpace=wrap;rounded=0;" parent="1" vertex="1">
          <mxGeometry x="130" y="210" width="138.75" height="20" as="geometry" />
        </mxCell>
        <mxCell id="ymZq4ziiiDrzz2XUPteQ-11" value=":ViewController" style="rounded=0;whiteSpace=wrap;html=1;" parent="1" vertex="1">
          <mxGeometry x="285" y="120" width="120" height="60" as="geometry" />
        </mxCell>
        <mxCell id="ymZq4ziiiDrzz2XUPteQ-17" value=":Controller" style="rounded=0;whiteSpace=wrap;html=1;" parent="1" vertex="1">
          <mxGeometry x="430" y="120" width="120" height="60" as="geometry" />
        </mxCell>
        <mxCell id="ymZq4ziiiDrzz2XUPteQ-42" value="" style="endArrow=classic;html=1;entryX=0;entryY=0;entryDx=0;entryDy=0;" parent="1" edge="1">
          <mxGeometry width="50" height="50" relative="1" as="geometry">
            <mxPoint x="134" y="370" as="sourcePoint" />
            <mxPoint x="339" y="370" as="targetPoint" />
          </mxGeometry>
        </mxCell>
        <mxCell id="ymZq4ziiiDrzz2XUPteQ-43" value="" style="endArrow=none;html=1;exitX=0.5;exitY=0;exitDx=0;exitDy=0;startArrow=none;" parent="1" source="oK4e31LTFk5F_U8Ap8hT-17" edge="1">
          <mxGeometry width="50" height="50" relative="1" as="geometry">
            <mxPoint x="490" y="360" as="sourcePoint" />
            <mxPoint x="489.5" y="180" as="targetPoint" />
          </mxGeometry>
        </mxCell>
        <mxCell id="ymZq4ziiiDrzz2XUPteQ-44" value="" style="rounded=0;whiteSpace=wrap;html=1;" parent="1" vertex="1">
          <mxGeometry x="483" y="460" width="10" height="89" as="geometry" />
        </mxCell>
        <mxCell id="ymZq4ziiiDrzz2XUPteQ-45" value="book return request" style="text;html=1;strokeColor=none;fillColor=none;align=center;verticalAlign=middle;whiteSpace=wrap;rounded=0;" parent="1" vertex="1">
          <mxGeometry x="177" y="370" width="112" height="20" as="geometry" />
        </mxCell>
        <mxCell id="ymZq4ziiiDrzz2XUPteQ-46" value=":ReturnResultView" style="rounded=0;whiteSpace=wrap;html=1;" parent="1" vertex="1">
          <mxGeometry x="580" y="120" width="120" height="60" as="geometry" />
        </mxCell>
        <mxCell id="ymZq4ziiiDrzz2XUPteQ-48" value=":DatabaseConnection" style="rounded=0;whiteSpace=wrap;html=1;" parent="1" vertex="1">
          <mxGeometry x="730" y="120" width="120" height="60" as="geometry" />
        </mxCell>
        <mxCell id="ymZq4ziiiDrzz2XUPteQ-49" value="Database" style="shape=umlActor;verticalLabelPosition=bottom;verticalAlign=top;html=1;outlineConnect=0;" parent="1" vertex="1">
          <mxGeometry x="1070" y="120" width="30" height="60" as="geometry" />
        </mxCell>
        <mxCell id="ymZq4ziiiDrzz2XUPteQ-50" value="" style="endArrow=classic;html=1;entryX=0;entryY=0;entryDx=0;entryDy=0;" parent="1" edge="1">
          <mxGeometry width="50" height="50" relative="1" as="geometry">
            <mxPoint x="491.75" y="470" as="sourcePoint" />
            <mxPoint x="781.75" y="470" as="targetPoint" />
          </mxGeometry>
        </mxCell>
        <mxCell id="ymZq4ziiiDrzz2XUPteQ-57" style="edgeStyle=orthogonalEdgeStyle;rounded=0;orthogonalLoop=1;jettySize=auto;html=1;entryX=0.5;entryY=1;entryDx=0;entryDy=0;strokeColor=none;" parent="1" source="ymZq4ziiiDrzz2XUPteQ-55" target="ymZq4ziiiDrzz2XUPteQ-48" edge="1">
          <mxGeometry relative="1" as="geometry" />
        </mxCell>
        <mxCell id="ymZq4ziiiDrzz2XUPteQ-55" value="" style="rounded=0;whiteSpace=wrap;html=1;" parent="1" vertex="1">
          <mxGeometry x="783" y="469" width="10" height="60" as="geometry" />
        </mxCell>
        <mxCell id="ymZq4ziiiDrzz2XUPteQ-58" value="" style="endArrow=none;html=1;exitX=0.5;exitY=0;exitDx=0;exitDy=0;" parent="1" source="ymZq4ziiiDrzz2XUPteQ-55" edge="1">
          <mxGeometry width="50" height="50" relative="1" as="geometry">
            <mxPoint x="789.5" y="240" as="sourcePoint" />
            <mxPoint x="789.5" y="180" as="targetPoint" />
          </mxGeometry>
        </mxCell>
        <mxCell id="ymZq4ziiiDrzz2XUPteQ-60" value="" style="endArrow=none;html=1;" parent="1" edge="1">
          <mxGeometry width="50" height="50" relative="1" as="geometry">
            <mxPoint x="1080" y="840" as="sourcePoint" />
            <mxPoint x="1084" y="200" as="targetPoint" />
          </mxGeometry>
        </mxCell>
        <mxCell id="ymZq4ziiiDrzz2XUPteQ-64" value="" style="endArrow=classic;html=1;exitX=1;exitY=0.5;exitDx=0;exitDy=0;" parent="1" source="ymZq4ziiiDrzz2XUPteQ-55" edge="1">
          <mxGeometry width="50" height="50" relative="1" as="geometry">
            <mxPoint x="810" y="490" as="sourcePoint" />
            <mxPoint x="1083" y="499" as="targetPoint" />
          </mxGeometry>
        </mxCell>
        <mxCell id="ymZq4ziiiDrzz2XUPteQ-65" value="" style="endArrow=classic;html=1;dashed=1;" parent="1" edge="1">
          <mxGeometry width="50" height="50" relative="1" as="geometry">
            <mxPoint x="1082" y="520" as="sourcePoint" />
            <mxPoint x="794" y="520" as="targetPoint" />
          </mxGeometry>
        </mxCell>
        <mxCell id="ymZq4ziiiDrzz2XUPteQ-66" value="update records" style="text;html=1;strokeColor=none;fillColor=none;align=center;verticalAlign=middle;whiteSpace=wrap;rounded=0;" parent="1" vertex="1">
          <mxGeometry x="980" y="479" width="90" height="20" as="geometry" />
        </mxCell>
        <mxCell id="ymZq4ziiiDrzz2XUPteQ-67" value="result" style="text;html=1;strokeColor=none;fillColor=none;align=center;verticalAlign=middle;whiteSpace=wrap;rounded=0;" parent="1" vertex="1">
          <mxGeometry x="810" y="519" width="40" height="20" as="geometry" />
        </mxCell>
        <mxCell id="ymZq4ziiiDrzz2XUPteQ-68" value="" style="endArrow=none;html=1;entryX=0.5;entryY=1;entryDx=0;entryDy=0;" parent="1" target="ymZq4ziiiDrzz2XUPteQ-55" edge="1">
          <mxGeometry width="50" height="50" relative="1" as="geometry">
            <mxPoint x="788" y="839" as="sourcePoint" />
            <mxPoint x="787.5" y="529" as="targetPoint" />
          </mxGeometry>
        </mxCell>
        <mxCell id="ymZq4ziiiDrzz2XUPteQ-70" value="" style="endArrow=classic;html=1;entryX=1;entryY=0;entryDx=0;entryDy=0;dashed=1;" parent="1" target="ymZq4ziiiDrzz2XUPteQ-72" edge="1">
          <mxGeometry width="50" height="50" relative="1" as="geometry">
            <mxPoint x="483" y="539" as="sourcePoint" />
            <mxPoint x="373" y="539" as="targetPoint" />
          </mxGeometry>
        </mxCell>
        <mxCell id="ymZq4ziiiDrzz2XUPteQ-71" value="" style="endArrow=none;html=1;exitX=0.5;exitY=0;exitDx=0;exitDy=0;entryX=0.5;entryY=1;entryDx=0;entryDy=0;startArrow=none;" parent="1" target="ymZq4ziiiDrzz2XUPteQ-11" edge="1">
          <mxGeometry width="50" height="50" relative="1" as="geometry">
            <mxPoint x="344" y="370" as="sourcePoint" />
            <mxPoint x="344.76" y="310" as="targetPoint" />
          </mxGeometry>
        </mxCell>
        <mxCell id="ymZq4ziiiDrzz2XUPteQ-72" value="" style="rounded=0;whiteSpace=wrap;html=1;" parent="1" vertex="1">
          <mxGeometry x="338" y="539" width="10" height="190" as="geometry" />
        </mxCell>
        <mxCell id="ymZq4ziiiDrzz2XUPteQ-73" value="return returnResult" style="text;html=1;strokeColor=none;fillColor=none;align=center;verticalAlign=middle;whiteSpace=wrap;rounded=0;" parent="1" vertex="1">
          <mxGeometry x="353" y="539" width="125" height="20" as="geometry" />
        </mxCell>
        <mxCell id="ymZq4ziiiDrzz2XUPteQ-75" value="" style="endArrow=classic;html=1;entryX=0;entryY=0;entryDx=0;entryDy=0;" parent="1" target="ymZq4ziiiDrzz2XUPteQ-76" edge="1">
          <mxGeometry width="50" height="50" relative="1" as="geometry">
            <mxPoint x="348" y="579" as="sourcePoint" />
            <mxPoint x="768" y="579" as="targetPoint" />
          </mxGeometry>
        </mxCell>
        <mxCell id="ymZq4ziiiDrzz2XUPteQ-76" value="" style="rounded=0;whiteSpace=wrap;html=1;" parent="1" vertex="1">
          <mxGeometry x="633" y="579" width="10" height="20" as="geometry" />
        </mxCell>
        <mxCell id="ymZq4ziiiDrzz2XUPteQ-77" value="" style="endArrow=none;html=1;entryX=0.5;entryY=0;entryDx=0;entryDy=0;startArrow=none;" parent="1" source="ymZq4ziiiDrzz2XUPteQ-53" target="ymZq4ziiiDrzz2XUPteQ-76" edge="1">
          <mxGeometry width="50" height="50" relative="1" as="geometry">
            <mxPoint x="639.41" y="180" as="sourcePoint" />
            <mxPoint x="639.41" y="470" as="targetPoint" />
          </mxGeometry>
        </mxCell>
        <mxCell id="ymZq4ziiiDrzz2XUPteQ-80" value="" style="rounded=0;whiteSpace=wrap;html=1;" parent="1" vertex="1">
          <mxGeometry x="533" y="599" width="210" height="120" as="geometry" />
        </mxCell>
        <mxCell id="ymZq4ziiiDrzz2XUPteQ-81" value="" style="endArrow=none;html=1;" parent="1" target="ymZq4ziiiDrzz2XUPteQ-80" edge="1">
          <mxGeometry width="50" height="50" relative="1" as="geometry">
            <mxPoint x="533" y="643" as="sourcePoint" />
            <mxPoint x="556.75" y="643" as="targetPoint" />
          </mxGeometry>
        </mxCell>
        <mxCell id="ymZq4ziiiDrzz2XUPteQ-85" value="" style="verticalLabelPosition=bottom;verticalAlign=top;html=1;shape=card;whiteSpace=wrap;size=20;arcSize=12;rotation=-180;" parent="1" vertex="1">
          <mxGeometry x="533" y="599" width="50" height="40" as="geometry" />
        </mxCell>
        <mxCell id="ymZq4ziiiDrzz2XUPteQ-86" value="&lt;font style=&quot;font-size: 18px&quot;&gt;alt&lt;/font&gt;" style="text;html=1;strokeColor=none;fillColor=none;align=center;verticalAlign=middle;whiteSpace=wrap;rounded=0;" parent="1" vertex="1">
          <mxGeometry x="533" y="609" width="45" height="20" as="geometry" />
        </mxCell>
        <mxCell id="ymZq4ziiiDrzz2XUPteQ-88" value="" style="endArrow=none;html=1;" parent="1" target="ymZq4ziiiDrzz2XUPteQ-80" edge="1">
          <mxGeometry width="50" height="50" relative="1" as="geometry">
            <mxPoint x="533" y="679" as="sourcePoint" />
            <mxPoint x="583" y="679" as="targetPoint" />
          </mxGeometry>
        </mxCell>
        <mxCell id="ymZq4ziiiDrzz2XUPteQ-89" value="returnResult == true" style="text;html=1;strokeColor=none;fillColor=none;align=center;verticalAlign=middle;whiteSpace=wrap;rounded=0;" parent="1" vertex="1">
          <mxGeometry x="581.75" y="599" width="133.75" height="20" as="geometry" />
        </mxCell>
        <mxCell id="ymZq4ziiiDrzz2XUPteQ-90" value="page = render(true)" style="text;html=1;strokeColor=none;fillColor=none;align=center;verticalAlign=middle;whiteSpace=wrap;rounded=0;" parent="1" vertex="1">
          <mxGeometry x="644.25" y="629" width="95" height="20" as="geometry" />
        </mxCell>
        <mxCell id="ymZq4ziiiDrzz2XUPteQ-91" value="" style="endArrow=none;html=1;entryX=1;entryY=0.5;entryDx=0;entryDy=0;dashed=1;exitX=0;exitY=0.5;exitDx=0;exitDy=0;" parent="1" source="ymZq4ziiiDrzz2XUPteQ-80" target="ymZq4ziiiDrzz2XUPteQ-80" edge="1">
          <mxGeometry width="50" height="50" relative="1" as="geometry">
            <mxPoint x="533" y="679" as="sourcePoint" />
            <mxPoint x="623" y="679" as="targetPoint" />
          </mxGeometry>
        </mxCell>
        <mxCell id="ymZq4ziiiDrzz2XUPteQ-92" value="" style="rounded=0;whiteSpace=wrap;html=1;" parent="1" vertex="1">
          <mxGeometry x="631.75" y="619" width="10" height="140" as="geometry" />
        </mxCell>
        <mxCell id="ymZq4ziiiDrzz2XUPteQ-93" value="[else]" style="text;html=1;strokeColor=none;fillColor=none;align=center;verticalAlign=middle;whiteSpace=wrap;rounded=0;" parent="1" vertex="1">
          <mxGeometry x="591.75" y="659" width="40" height="20" as="geometry" />
        </mxCell>
        <mxCell id="ymZq4ziiiDrzz2XUPteQ-95" value="page = render(fail)" style="text;html=1;strokeColor=none;fillColor=none;align=center;verticalAlign=middle;whiteSpace=wrap;rounded=0;" parent="1" vertex="1">
          <mxGeometry x="643" y="679" width="97.5" height="20" as="geometry" />
        </mxCell>
        <mxCell id="ymZq4ziiiDrzz2XUPteQ-101" value="" style="endArrow=none;html=1;entryX=0.5;entryY=1;entryDx=0;entryDy=0;" parent="1" target="ymZq4ziiiDrzz2XUPteQ-92" edge="1">
          <mxGeometry width="50" height="50" relative="1" as="geometry">
            <mxPoint x="637" y="839" as="sourcePoint" />
            <mxPoint x="637.17" y="739" as="targetPoint" />
          </mxGeometry>
        </mxCell>
        <mxCell id="ymZq4ziiiDrzz2XUPteQ-104" value="" style="endArrow=none;html=1;entryX=0.5;entryY=1;entryDx=0;entryDy=0;" parent="1" target="ymZq4ziiiDrzz2XUPteQ-72" edge="1">
          <mxGeometry width="50" height="50" relative="1" as="geometry">
            <mxPoint x="343" y="839" as="sourcePoint" />
            <mxPoint x="342.40999999999997" y="779" as="targetPoint" />
          </mxGeometry>
        </mxCell>
        <mxCell id="XbSnRbyiRiulwxPB_xvA-4" value="" style="rounded=0;whiteSpace=wrap;html=1;" parent="1" vertex="1">
          <mxGeometry x="338" y="949" width="10" height="20" as="geometry" />
        </mxCell>
        <mxCell id="XbSnRbyiRiulwxPB_xvA-5" value="" style="rounded=0;whiteSpace=wrap;html=1;" parent="1" vertex="1">
          <mxGeometry x="238" y="969" width="500" height="180" as="geometry" />
        </mxCell>
        <mxCell id="XbSnRbyiRiulwxPB_xvA-6" value="" style="endArrow=none;html=1;" parent="1" target="XbSnRbyiRiulwxPB_xvA-5" edge="1">
          <mxGeometry width="50" height="50" relative="1" as="geometry">
            <mxPoint x="238" y="1013" as="sourcePoint" />
            <mxPoint x="261.75" y="1013" as="targetPoint" />
          </mxGeometry>
        </mxCell>
        <mxCell id="XbSnRbyiRiulwxPB_xvA-7" value="" style="verticalLabelPosition=bottom;verticalAlign=top;html=1;shape=card;whiteSpace=wrap;size=20;arcSize=12;rotation=-180;" parent="1" vertex="1">
          <mxGeometry x="238" y="969" width="50" height="40" as="geometry" />
        </mxCell>
        <mxCell id="XbSnRbyiRiulwxPB_xvA-8" value="&lt;font style=&quot;font-size: 18px&quot;&gt;alt&lt;/font&gt;" style="text;html=1;strokeColor=none;fillColor=none;align=center;verticalAlign=middle;whiteSpace=wrap;rounded=0;" parent="1" vertex="1">
          <mxGeometry x="238" y="979" width="45" height="20" as="geometry" />
        </mxCell>
        <mxCell id="XbSnRbyiRiulwxPB_xvA-9" value="" style="endArrow=none;html=1;" parent="1" target="XbSnRbyiRiulwxPB_xvA-5" edge="1">
          <mxGeometry width="50" height="50" relative="1" as="geometry">
            <mxPoint x="238" y="1049" as="sourcePoint" />
            <mxPoint x="288" y="1049" as="targetPoint" />
          </mxGeometry>
        </mxCell>
        <mxCell id="XbSnRbyiRiulwxPB_xvA-10" value="returnResult == true" style="text;html=1;strokeColor=none;fillColor=none;align=center;verticalAlign=middle;whiteSpace=wrap;rounded=0;" parent="1" vertex="1">
          <mxGeometry x="288" y="979" width="133.75" height="20" as="geometry" />
        </mxCell>
        <mxCell id="XbSnRbyiRiulwxPB_xvA-14" value="[else]" style="text;html=1;strokeColor=none;fillColor=none;align=center;verticalAlign=middle;whiteSpace=wrap;rounded=0;" parent="1" vertex="1">
          <mxGeometry x="298" y="1069" width="40" height="20" as="geometry" />
        </mxCell>
        <mxCell id="XbSnRbyiRiulwxPB_xvA-16" value="&lt;b&gt;Variation 1&lt;/b&gt;" style="text;html=1;strokeColor=none;fillColor=none;align=center;verticalAlign=middle;whiteSpace=wrap;rounded=0;labelBackgroundColor=none;" parent="1" vertex="1">
          <mxGeometry x="203" y="849" width="80" height="20" as="geometry" />
        </mxCell>
        <mxCell id="XbSnRbyiRiulwxPB_xvA-18" value=":ViewController" style="rounded=0;whiteSpace=wrap;html=1;" parent="1" vertex="1">
          <mxGeometry x="288" y="859" width="120" height="60" as="geometry" />
        </mxCell>
        <mxCell id="XbSnRbyiRiulwxPB_xvA-19" value="" style="endArrow=none;html=1;" parent="1" edge="1">
          <mxGeometry width="50" height="50" relative="1" as="geometry">
            <mxPoint x="343" y="949" as="sourcePoint" />
            <mxPoint x="342.5" y="919" as="targetPoint" />
          </mxGeometry>
        </mxCell>
        <mxCell id="XbSnRbyiRiulwxPB_xvA-31" value=":ReturnResultView" style="rounded=0;whiteSpace=wrap;html=1;" parent="1" vertex="1">
          <mxGeometry x="578" y="859" width="120" height="60" as="geometry" />
        </mxCell>
        <mxCell id="XbSnRbyiRiulwxPB_xvA-33" value="" style="endArrow=classic;html=1;entryX=-0.004;entryY=0.414;entryDx=0;entryDy=0;entryPerimeter=0;" parent="1" target="XbSnRbyiRiulwxPB_xvA-29" edge="1">
          <mxGeometry width="50" height="50" relative="1" as="geometry">
            <mxPoint x="348" y="1029" as="sourcePoint" />
            <mxPoint x="777" y="1019" as="targetPoint" />
          </mxGeometry>
        </mxCell>
        <mxCell id="XbSnRbyiRiulwxPB_xvA-34" value="returnResultPage = render(returnResult : boolean)" style="text;html=1;strokeColor=none;fillColor=none;align=center;verticalAlign=middle;whiteSpace=wrap;rounded=0;" parent="1" vertex="1">
          <mxGeometry x="326.75" y="1009" width="322.5" height="20" as="geometry" />
        </mxCell>
        <mxCell id="XbSnRbyiRiulwxPB_xvA-35" value="" style="endArrow=none;html=1;entryX=0.998;entryY=0.544;entryDx=0;entryDy=0;entryPerimeter=0;" parent="1" target="XbSnRbyiRiulwxPB_xvA-5" edge="1">
          <mxGeometry width="50" height="50" relative="1" as="geometry">
            <mxPoint x="238" y="1069" as="sourcePoint" />
            <mxPoint x="288" y="1019" as="targetPoint" />
          </mxGeometry>
        </mxCell>
        <mxCell id="XbSnRbyiRiulwxPB_xvA-29" value="" style="rounded=0;whiteSpace=wrap;html=1;" parent="1" vertex="1">
          <mxGeometry x="631.75" y="949" width="10" height="190" as="geometry" />
        </mxCell>
        <mxCell id="XbSnRbyiRiulwxPB_xvA-13" value="" style="rounded=0;whiteSpace=wrap;html=1;" parent="1" vertex="1">
          <mxGeometry x="338" y="999" width="10" height="140" as="geometry" />
        </mxCell>
        <mxCell id="XbSnRbyiRiulwxPB_xvA-36" value="returnResultPage = render(returnResult : boolean)" style="text;html=1;strokeColor=none;fillColor=none;align=center;verticalAlign=middle;whiteSpace=wrap;rounded=0;" parent="1" vertex="1">
          <mxGeometry x="328" y="1089" width="322.5" height="20" as="geometry" />
        </mxCell>
        <mxCell id="XbSnRbyiRiulwxPB_xvA-37" value="" style="endArrow=classic;html=1;entryX=0.94;entryY=1.136;entryDx=0;entryDy=0;entryPerimeter=0;" parent="1" target="XbSnRbyiRiulwxPB_xvA-36" edge="1">
          <mxGeometry width="50" height="50" relative="1" as="geometry">
            <mxPoint x="347" y="1111.99" as="sourcePoint" />
            <mxPoint x="778" y="1109.0000000000002" as="targetPoint" />
          </mxGeometry>
        </mxCell>
        <mxCell id="ymZq4ziiiDrzz2XUPteQ-9" value="" style="rounded=0;whiteSpace=wrap;html=1;" parent="1" vertex="1">
          <mxGeometry x="269" y="210" width="290" height="110" as="geometry" />
        </mxCell>
        <mxCell id="0AsoECzYEEMhJQaMiZ-F-4" value="" style="endArrow=none;html=1;" parent="1" edge="1">
          <mxGeometry width="50" height="50" relative="1" as="geometry">
            <mxPoint x="268.75" y="254" as="sourcePoint" />
            <mxPoint x="268.75" y="254" as="targetPoint" />
          </mxGeometry>
        </mxCell>
        <mxCell id="0AsoECzYEEMhJQaMiZ-F-5" value="" style="verticalLabelPosition=bottom;verticalAlign=top;html=1;shape=card;whiteSpace=wrap;size=20;arcSize=12;rotation=-180;" parent="1" vertex="1">
          <mxGeometry x="268.75" y="210" width="50" height="40" as="geometry" />
        </mxCell>
        <mxCell id="0AsoECzYEEMhJQaMiZ-F-6" value="&lt;span style=&quot;font-size: 18px&quot;&gt;ref&lt;/span&gt;" style="text;html=1;strokeColor=none;fillColor=none;align=center;verticalAlign=middle;whiteSpace=wrap;rounded=0;" parent="1" vertex="1">
          <mxGeometry x="268.75" y="220" width="45" height="20" as="geometry" />
        </mxCell>
        <mxCell id="0AsoECzYEEMhJQaMiZ-F-7" value="&lt;font style=&quot;font-size: 17px&quot;&gt;UC-07_Check Issue Info(Manager)&lt;/font&gt;" style="text;html=1;strokeColor=none;fillColor=none;align=center;verticalAlign=middle;whiteSpace=wrap;rounded=0;" parent="1" vertex="1">
          <mxGeometry x="260.25" y="255" width="307.5" height="20" as="geometry" />
        </mxCell>
        <mxCell id="ymZq4ziiiDrzz2XUPteQ-79" value="returnResultPage = render(returnResult : boolean)" style="text;html=1;strokeColor=none;fillColor=none;align=center;verticalAlign=middle;whiteSpace=wrap;rounded=0;" parent="1" vertex="1">
          <mxGeometry x="328" y="579" width="322.5" height="20" as="geometry" />
        </mxCell>
        <mxCell id="0AsoECzYEEMhJQaMiZ-F-9" value="" style="endArrow=none;html=1;entryX=0.5;entryY=1;entryDx=0;entryDy=0;" parent="1" target="XbSnRbyiRiulwxPB_xvA-31" edge="1">
          <mxGeometry width="50" height="50" relative="1" as="geometry">
            <mxPoint x="638" y="949" as="sourcePoint" />
            <mxPoint x="518" y="779" as="targetPoint" />
          </mxGeometry>
        </mxCell>
        <mxCell id="mpX7OZ5d1U-3e3zYbdvm-2" value="" style="endArrow=none;html=1;exitX=0.5;exitY=0;exitDx=0;exitDy=0;entryX=0.5;entryY=1;entryDx=0;entryDy=0;" parent="1" source="ymZq4ziiiDrzz2XUPteQ-72" target="oK4e31LTFk5F_U8Ap8hT-11" edge="1">
          <mxGeometry width="50" height="50" relative="1" as="geometry">
            <mxPoint x="343" y="539" as="sourcePoint" />
            <mxPoint x="343" y="490" as="targetPoint" />
          </mxGeometry>
        </mxCell>
        <mxCell id="mpX7OZ5d1U-3e3zYbdvm-4" value="&lt;font style=&quot;font-size: 11px&quot;&gt;returnBooks&lt;br&gt;(returnBookList : string, userIdx : int, token : string)&lt;/font&gt;" style="text;html=1;strokeColor=none;fillColor=none;align=center;verticalAlign=middle;whiteSpace=wrap;rounded=0;" parent="1" vertex="1">
          <mxGeometry x="340.5" y="380" width="150" height="40" as="geometry" />
        </mxCell>
        <mxCell id="mpX7OZ5d1U-3e3zYbdvm-8" value="" style="endArrow=classic;html=1;exitX=0.031;exitY=0.932;exitDx=0;exitDy=0;exitPerimeter=0;dashed=1;" parent="1" source="ymZq4ziiiDrzz2XUPteQ-92" edge="1">
          <mxGeometry width="50" height="50" relative="1" as="geometry">
            <mxPoint x="628" y="749" as="sourcePoint" />
            <mxPoint x="133" y="749" as="targetPoint" />
          </mxGeometry>
        </mxCell>
        <mxCell id="mpX7OZ5d1U-3e3zYbdvm-9" value="result displayed" style="text;html=1;strokeColor=none;fillColor=none;align=center;verticalAlign=middle;whiteSpace=wrap;rounded=0;" parent="1" vertex="1">
          <mxGeometry x="158" y="749" width="90" height="20" as="geometry" />
        </mxCell>
        <mxCell id="oK4e31LTFk5F_U8Ap8hT-1" value=":Authenticator" style="rounded=0;whiteSpace=wrap;html=1;" parent="1" vertex="1">
          <mxGeometry x="900" y="120" width="120" height="60" as="geometry" />
        </mxCell>
        <mxCell id="oK4e31LTFk5F_U8Ap8hT-2" value="" style="endArrow=none;html=1;" parent="1" edge="1">
          <mxGeometry width="50" height="50" relative="1" as="geometry">
            <mxPoint x="960" y="840" as="sourcePoint" />
            <mxPoint x="959.5" y="180" as="targetPoint" />
          </mxGeometry>
        </mxCell>
        <mxCell id="oK4e31LTFk5F_U8Ap8hT-6" value="" style="verticalLabelPosition=bottom;verticalAlign=top;html=1;shape=card;whiteSpace=wrap;size=20;arcSize=12;rotation=-180;" parent="1" vertex="1">
          <mxGeometry x="83" y="430" width="46" height="40" as="geometry" />
        </mxCell>
        <mxCell id="oK4e31LTFk5F_U8Ap8hT-7" value="&lt;font style=&quot;font-size: 18px&quot;&gt;alt&lt;/font&gt;" style="text;html=1;strokeColor=none;fillColor=none;align=center;verticalAlign=middle;whiteSpace=wrap;rounded=0;" parent="1" vertex="1">
          <mxGeometry x="81" y="440" width="45" height="20" as="geometry" />
        </mxCell>
        <mxCell id="oK4e31LTFk5F_U8Ap8hT-10" value="isAuthenticateUser == true" style="text;html=1;strokeColor=none;fillColor=none;align=center;verticalAlign=middle;whiteSpace=wrap;rounded=0;" parent="1" vertex="1">
          <mxGeometry x="406.75" y="420" width="162.5" height="49" as="geometry" />
        </mxCell>
        <mxCell id="oK4e31LTFk5F_U8Ap8hT-11" value="" style="rounded=0;whiteSpace=wrap;html=1;" parent="1" vertex="1">
          <mxGeometry x="339" y="370" width="10" height="50" as="geometry" />
        </mxCell>
        <mxCell id="oK4e31LTFk5F_U8Ap8hT-13" value="" style="endArrow=classic;html=1;" parent="1" edge="1">
          <mxGeometry width="50" height="50" relative="1" as="geometry">
            <mxPoint x="493" y="394.41" as="sourcePoint" />
            <mxPoint x="960" y="394" as="targetPoint" />
          </mxGeometry>
        </mxCell>
        <mxCell id="oK4e31LTFk5F_U8Ap8hT-14" value="isAuthenticateUser = retrieve(token : string)" style="text;html=1;strokeColor=none;fillColor=none;align=center;verticalAlign=middle;whiteSpace=wrap;rounded=0;" parent="1" vertex="1">
          <mxGeometry x="680" y="370" width="240" height="30" as="geometry" />
        </mxCell>
        <mxCell id="oK4e31LTFk5F_U8Ap8hT-17" value="" style="rounded=0;whiteSpace=wrap;html=1;" parent="1" vertex="1">
          <mxGeometry x="483" y="380" width="10" height="50" as="geometry" />
        </mxCell>
        <mxCell id="oK4e31LTFk5F_U8Ap8hT-20" value="" style="endArrow=classic;html=1;entryX=0;entryY=0;entryDx=0;entryDy=0;" parent="1" target="oK4e31LTFk5F_U8Ap8hT-17" edge="1">
          <mxGeometry width="50" height="50" relative="1" as="geometry">
            <mxPoint x="349" y="380" as="sourcePoint" />
            <mxPoint x="409" y="330" as="targetPoint" />
          </mxGeometry>
        </mxCell>
        <mxCell id="oK4e31LTFk5F_U8Ap8hT-23" value="" style="endArrow=none;dashed=1;html=1;entryX=0.007;entryY=0.897;entryDx=0;entryDy=0;entryPerimeter=0;exitX=1.002;exitY=0.897;exitDx=0;exitDy=0;exitPerimeter=0;" parent="1" source="oK4e31LTFk5F_U8Ap8hT-4" target="oK4e31LTFk5F_U8Ap8hT-4" edge="1">
          <mxGeometry width="50" height="50" relative="1" as="geometry">
            <mxPoint x="610" y="640" as="sourcePoint" />
            <mxPoint x="660" y="590" as="targetPoint" />
          </mxGeometry>
        </mxCell>
        <mxCell id="oK4e31LTFk5F_U8Ap8hT-24" value="[else]" style="text;html=1;strokeColor=none;fillColor=none;align=center;verticalAlign=middle;whiteSpace=wrap;rounded=0;" parent="1" vertex="1">
          <mxGeometry x="450.5" y="780" width="40" height="20" as="geometry" />
        </mxCell>
        <mxCell id="oK4e31LTFk5F_U8Ap8hT-25" value="isAuthenticateUser == false" style="text;html=1;strokeColor=none;fillColor=none;align=center;verticalAlign=middle;whiteSpace=wrap;rounded=0;" parent="1" vertex="1">
          <mxGeometry x="408.75" y="790" width="162.5" height="30" as="geometry" />
        </mxCell>
        <mxCell id="ymZq4ziiiDrzz2XUPteQ-53" value="returnResult = retrieve(returnBookList : string, userIdx : int)" style="text;html=1;strokeColor=none;fillColor=none;align=center;verticalAlign=middle;whiteSpace=wrap;rounded=0;" parent="1" vertex="1">
          <mxGeometry x="554.5" y="470" width="167" height="39" as="geometry" />
        </mxCell>
        <mxCell id="oK4e31LTFk5F_U8Ap8hT-27" value="" style="endArrow=none;html=1;entryX=0.5;entryY=0;entryDx=0;entryDy=0;" parent="1" target="ymZq4ziiiDrzz2XUPteQ-53" edge="1">
          <mxGeometry width="50" height="50" relative="1" as="geometry">
            <mxPoint x="639.4099999999999" y="180" as="sourcePoint" />
            <mxPoint x="638" y="579" as="targetPoint" />
          </mxGeometry>
        </mxCell>
      </root>
    </mxGraphModel>
  </diagram>
</mxfile>
